<svg class="diagram-root" style="background: #f5f6f6" xmlns="http://www.w3.org/2000/svg" xmlns:xlink="http://www.w3.org/1999/xlink"><style>.diagram-root { font-family: "Helvetica Neue", sans-serif; font-size: 12px; } .t { overflow: visible; } .t-bg { y: 40; fill: #fff;   } .th { fill: #005aa0;   } .tht { fill: #fff; font-size: 14px;  } .tf { fill: #323c46; overflow: visible; } .tf.pk { fill: #005aa0; font-weight: bold; } .tf.fk { font-weight: bold; } .ty { fill: #adb1b5; font-weight: normal; text-anchor: end; } .r { fill: transparent; stroke: #c3c3c3; stroke-width: 1; } .l { stroke: 1; } .i { fill: #c2c7ce; stroke: #c2c7ce; } .i.ix { fill: #afb3b6; stroke: #000; } .fa { fill: transparent; overflow: visible; } .fa .bg.hover { fill: #f7f7f7; } .c { cy: 12; r: 4; stroke: #d2d2dc; fill: #d2d2dc; } .hr { fill: transparent; stroke: #323c46; stroke-opacity: 0.035; stroke-width: 13; } .dc { stroke: #fa5a3c; fill: #fa5a3c; } .x { stroke: white; stroke-width: 1; } .hl .th { fill: #1b9bff; } .hl .tht {  } .fhl .bg { fill: #e7f4ff; } .fhls .bg {  } .r.hl { stroke: #1b9bff; } .dim { opacity: 0.25; }</style><g class="drawing-wrapper" transform="translate(2, 21) scale(1,1)"><g class="rs"><path d="M 196 112 m -1, 0 a 1,1 0 1,0 2,0 a 1,1 0 1,0 -2,0 M 196 112 m -0.5, 0 a 0.5,0.5 0 1,0 1,0 a 0.5,0.5 0 1,0 -1,0  M196 112 L196 112 208 112 M 196 118 m -1, 0 a 1,1 0 1,0 2,0 a 1,1 0 1,0 -2,0 M 196 118 m -0.5, 0 a 0.5,0.5 0 1,0 1,0 a 0.5,0.5 0 1,0 -1,0  M196 118 L196 118 203 112 196 106 M 196 106 m -1, 0 a 1,1 0 1,0 2,0 a 1,1 0 1,0 -2,0 M 196 106 m -0.5, 0 a 0.5,0.5 0 1,0 1,0 a 0.5,0.5 0 1,0 -1,0  M208 112 Q 273.75 112, 339.5 89 T 471 66 M 483 66 m -1, 0 a 1,1 0 1,0 2,0 a 1,1 0 1,0 -2,0 M 483 66 m -0.5, 0 a 0.5,0.5 0 1,0 1,0 a 0.5,0.5 0 1,0 -1,0  M483 66 L483 66 471 66 M477 72 L477 72 477 60" id="h184283748" class="r"></path><path d="M 196 387 m -1, 0 a 1,1 0 1,0 2,0 a 1,1 0 1,0 -2,0 M 196 387 m -0.5, 0 a 0.5,0.5 0 1,0 1,0 a 0.5,0.5 0 1,0 -1,0  M196 387 L196 387 208 387 M 196 393 m -1, 0 a 1,1 0 1,0 2,0 a 1,1 0 1,0 -2,0 M 196 393 m -0.5, 0 a 0.5,0.5 0 1,0 1,0 a 0.5,0.5 0 1,0 -1,0  M196 393 L196 393 203 387 196 381 M 196 381 m -1, 0 a 1,1 0 1,0 2,0 a 1,1 0 1,0 -2,0 M 196 381 m -0.5, 0 a 0.5,0.5 0 1,0 1,0 a 0.5,0.5 0 1,0 -1,0  M208 387 Q 270.25 387, 332.5 372 T 457 357 M 469 357 m -1, 0 a 1,1 0 1,0 2,0 a 1,1 0 1,0 -2,0 M 469 357 m -0.5, 0 a 0.5,0.5 0 1,0 1,0 a 0.5,0.5 0 1,0 -1,0  M469 357 L469 357 457 357 M463 363 L463 363 463 351" id="h2405255031" class="r"></path><path d="M 196 412 m -1, 0 a 1,1 0 1,0 2,0 a 1,1 0 1,0 -2,0 M 196 412 m -0.5, 0 a 0.5,0.5 0 1,0 1,0 a 0.5,0.5 0 1,0 -1,0  M196 412 L196 412 208 412 M 196 418 m -1, 0 a 1,1 0 1,0 2,0 a 1,1 0 1,0 -2,0 M 196 418 m -0.5, 0 a 0.5,0.5 0 1,0 1,0 a 0.5,0.5 0 1,0 -1,0  M196 418 L196 418 203 412 196 406 M 196 406 m -1, 0 a 1,1 0 1,0 2,0 a 1,1 0 1,0 -2,0 M 196 406 m -0.5, 0 a 0.5,0.5 0 1,0 1,0 a 0.5,0.5 0 1,0 -1,0  M208 412 C 379.6 412, 334 660, 284 660 M 272 660 m -1, 0 a 1,1 0 1,0 2,0 a 1,1 0 1,0 -2,0 M 272 660 m -0.5, 0 a 0.5,0.5 0 1,0 1,0 a 0.5,0.5 0 1,0 -1,0  M272 660 L272 660 284 660 M278 666 L278 666 278 654" id="h734363672" class="r"></path></g><g class="hrs"></g><g class="ts"><svg width="166" height="400" x="30" y="30" id="h3542347218" class="t"><rect height="40" width="166" class="th"></rect><text x="13" y="25" class="tht">Campaign</text><rect height="360" width="166" class="t-bg" y="40"></rect><text x="13" y="61" class="tf pk">cf_id<tspan x="153" class="ty">int</tspan></text><path d="M7,14A2,2 0 0,1 5,12A2,2 0 0,1 7,10A2,2 0 0,1 9,12A2,2 0 0,1 7,14M12.65,10C11.83,7.67 9.61,6 7, 6A6, 6 0 0, 0 1, 12A6, 6 0 0, 0 7, 18C9.61, 18 11.83, 16.33 12.65, 14H17V18H21V14H23V10H12.65Z" class="i pk" transform="translate(120, 48) scale(0.65)"></path><text x="13" y="86" class="tf fk">contact_id<tspan x="153" class="ty">int</tspan></text><text x="13" y="111" class="tf">company_name<tspan x="153" class="ty">string</tspan></text><text x="13" y="136" class="tf">description<tspan x="153" class="ty">string</tspan></text><text x="13" y="161" class="tf">goal<tspan x="153" class="ty">float</tspan></text><text x="13" y="186" class="tf">pledged<tspan x="153" class="ty">float</tspan></text><text x="13" y="211" class="tf">outcome<tspan x="153" class="ty">string</tspan></text><text x="13" y="236" class="tf">backers_count<tspan x="153" class="ty">int</tspan></text><text x="13" y="261" class="tf">country<tspan x="153" class="ty">string</tspan></text><text x="13" y="286" class="tf">currency<tspan x="153" class="ty">string</tspan></text><text x="13" y="311" class="tf">launched_date<tspan x="153" class="ty">string</tspan></text><text x="13" y="336" class="tf">end_date<tspan x="153" class="ty">string</tspan></text><text x="13" y="361" class="tf fk">category_id<tspan x="153" class="ty">string</tspan></text><text x="13" y="386" class="tf fk">subcategory_id<tspan x="153" class="ty">string</tspan></text></svg><svg width="163" height="100" x="109" y="603" id="h2584823334" class="t"><rect height="40" width="163" class="th"></rect><text x="13" y="25" class="tht">Subcategory</text><rect height="60" width="163" class="t-bg" y="40"></rect><text x="13" y="61" class="tf fk">subcategory_id<tspan x="150" class="ty">object</tspan></text><text x="13" y="86" class="tf">subcategory<tspan x="150" class="ty">object</tspan></text></svg><svg width="136" height="150" x="483" y="9" id="h1934035236" class="t"><rect height="40" width="136" class="th"></rect><text x="13" y="25" class="tht">Contacts</text><rect height="110" width="136" class="t-bg" y="40"></rect><text x="13" y="61" class="tf pk">contact_id<tspan x="123" class="ty">int</tspan></text><path d="M7,14A2,2 0 0,1 5,12A2,2 0 0,1 7,10A2,2 0 0,1 9,12A2,2 0 0,1 7,14M12.65,10C11.83,7.67 9.61,6 7, 6A6, 6 0 0, 0 1, 12A6, 6 0 0, 0 7, 18C9.61, 18 11.83, 16.33 12.65, 14H17V18H21V14H23V10H12.65Z" class="i pk" transform="translate(90, 48) scale(0.65)"></path><text x="13" y="86" class="tf">first_name<tspan x="123" class="ty">string</tspan></text><text x="13" y="111" class="tf">last_name<tspan x="123" class="ty">string</tspan></text><text x="13" y="136" class="tf">email<tspan x="123" class="ty">string</tspan></text></svg><svg width="160" height="100" x="469" y="300" id="h1903237708" class="t"><rect height="40" width="160" class="th"></rect><text x="13" y="25" class="tht">Category</text><rect height="60" width="160" class="t-bg" y="40"></rect><text x="13" y="61" class="tf pk">category_id<tspan x="147" class="ty">string</tspan></text><path d="M7,14A2,2 0 0,1 5,12A2,2 0 0,1 7,10A2,2 0 0,1 9,12A2,2 0 0,1 7,14M12.65,10C11.83,7.67 9.61,6 7, 6A6, 6 0 0, 0 1, 12A6, 6 0 0, 0 7, 18C9.61, 18 11.83, 16.33 12.65, 14H17V18H21V14H23V10H12.65Z" class="i pk" transform="translate(96, 48) scale(0.65)"></path><text x="13" y="86" class="tf">category<tspan x="147" class="ty">string</tspan></text></svg></g></g><text class="qdbd-link" x="10" y="20">www.quickdatabasediagrams.com</text></svg>